<?xml version="1.0" standalone="no"?>
<!DOCTYPE svg PUBLIC "-//W3C//DTD SVG 20010904//EN"
 "http://www.w3.org/TR/2001/REC-SVG-20010904/DTD/svg10.dtd">
<svg version="1.0" xmlns="http://www.w3.org/2000/svg"
 width="584.000000pt" height="119.000000pt" viewBox="0 0 584.000000 119.000000"
 preserveAspectRatio="xMidYMid meet">

<g transform="translate(0.000000,119.000000) scale(0.100000,-0.100000)"
fill="#000000" stroke="none">
<path d="M2252 1048 c-17 -17 -15 -38 3 -38 20 0 19 -26 -1 -34 -24 -9 -104
-7 -154 5 -132 31 -234 28 -311 -11 -66 -34 -90 -98 -51 -133 23 -21 41 -21
70 -1 30 21 28 42 -5 46 -36 4 -40 23 -9 43 21 14 38 15 103 8 l78 -8 3 -311
c2 -300 2 -311 -18 -329 -37 -34 -25 -42 60 -42 44 0 82 3 85 7 2 4 -4 15 -15
25 -19 17 -20 32 -20 326 l0 309 43 -6 c54 -8 146 17 181 49 33 29 42 69 21
91 -19 19 -46 21 -63 4z"/>
<path d="M5658 1049 c-22 -12 -24 -39 -3 -39 20 0 19 -26 -1 -34 -23 -9 -93
-7 -141 4 -187 43 -337 19 -379 -61 -32 -62 17 -121 71 -85 33 21 33 46 0 46
-18 0 -25 5 -25 20 0 33 39 44 122 34 l73 -9 3 -315 c2 -312 2 -315 -19 -331
-35 -26 -15 -36 67 -35 80 1 104 14 65 36 -21 10 -21 18 -21 318 l0 308 73 0
c79 0 142 25 171 66 22 31 20 65 -3 78 -24 12 -31 12 -53 -1z"/>
<path d="M4752 999 c-102 -13 -161 -78 -140 -154 13 -46 43 -69 193 -143 176
-87 205 -115 205 -201 0 -75 -19 -120 -70 -163 -93 -80 -250 -77 -346 6 -33
28 -38 38 -42 87 -4 49 -1 58 24 88 53 64 151 81 215 38 59 -39 45 -117 -21
-117 -33 0 -53 21 -48 52 2 18 -1 22 -17 20 -23 -4 -55 -37 -55 -58 0 -7 10
-25 23 -40 28 -32 108 -44 157 -24 72 30 93 112 43 171 -36 43 -79 59 -155 59
-130 -1 -208 -70 -208 -183 1 -93 68 -170 175 -198 62 -17 192 -7 242 19 130
67 182 172 149 304 -14 56 -23 69 -74 116 -39 37 -95 71 -180 113 -138 67
-165 93 -139 133 31 47 147 60 186 22 13 -14 14 -20 2 -38 -11 -17 -11 -22 1
-29 32 -21 78 9 78 51 0 54 -83 83 -198 69z"/>
<path d="M1285 981 c-53 -24 -76 -51 -82 -99 -9 -63 33 -101 203 -182 122 -58
147 -74 173 -110 25 -34 31 -53 31 -92 0 -136 -108 -227 -258 -216 -111 8
-192 64 -206 143 -15 77 61 154 152 155 54 0 107 -22 122 -50 26 -49 -18 -100
-74 -86 -22 5 -26 12 -26 41 0 40 -7 43 -44 14 -65 -51 -11 -119 95 -119 47 0
55 4 91 40 36 36 40 44 35 76 -13 80 -77 123 -180 124 -165 0 -260 -135 -191
-272 64 -127 313 -159 452 -58 66 48 96 101 100 181 6 108 -15 158 -96 223
-38 31 -118 78 -184 110 -98 47 -119 61 -124 83 -13 52 76 97 155 77 34 -9 36
-12 35 -46 -1 -42 20 -57 55 -39 45 25 37 85 -15 107 -49 20 -170 18 -219 -5z"/>
<path d="M3375 986 c-22 -7 -68 -25 -102 -40 -34 -14 -74 -26 -89 -26 -23 0
-25 3 -20 25 5 21 3 25 -17 25 -29 0 -47 -18 -47 -45 0 -31 31 -55 72 -55 l35
0 6 -327 c7 -324 2 -397 -25 -414 -21 -14 -28 -11 -38 17 -9 22 -13 24 -25 14
-41 -34 6 -98 63 -85 37 8 66 38 92 97 19 44 21 65 20 344 0 164 4 313 10 334
12 44 52 84 103 100 168 53 282 -187 196 -414 -31 -85 -82 -137 -140 -143 -65
-7 -102 33 -64 71 22 21 18 35 -11 42 -18 5 -32 0 -50 -17 -67 -63 18 -162
124 -144 62 10 137 60 182 119 54 72 81 144 87 237 5 62 2 83 -15 122 -25 57
-106 145 -149 163 -40 17 -145 17 -198 0z"/>
<path d="M4100 993 c-8 -3 -27 -17 -42 -31 -15 -13 -33 -22 -41 -19 -21 8 -78
-34 -109 -79 -39 -56 -57 -104 -68 -184 -27 -187 56 -371 192 -430 43 -18 65
-22 124 -18 119 8 205 74 268 207 30 63 31 71 31 191 -1 113 -3 130 -27 182
-33 70 -100 145 -153 169 -39 18 -140 25 -175 12z m120 -58 c15 -8 44 -34 64
-58 148 -181 133 -485 -28 -558 -85 -39 -181 -16 -248 59 -75 83 -98 167 -87
312 8 105 25 156 64 198 l34 37 1 -41 c0 -82 84 -126 129 -68 23 29 25 42 11
64 -8 13 -11 12 -23 -4 -19 -25 -47 -14 -47 18 0 52 67 74 130 41z"/>
<path d="M170 977 c0 -7 9 -18 20 -25 19 -12 20 -23 20 -331 0 -305 -1 -319
-20 -336 -37 -33 -25 -41 60 -42 44 0 82 3 85 7 2 4 -4 15 -15 25 -19 17 -20
32 -20 340 0 308 1 323 20 340 11 10 17 22 14 26 -9 15 -164 11 -164 -4z"/>
<path d="M490 979 c0 -6 9 -18 20 -27 20 -17 20 -17 -5 -332 -14 -173 -25
-318 -25 -321 0 -3 -12 -11 -26 -18 -44 -20 -23 -36 50 -37 74 -1 88 8 58 37
-17 15 -20 27 -16 71 14 159 34 411 34 424 0 8 16 -4 36 -26 20 -22 75 -61
123 -87 141 -77 179 -124 155 -187 -8 -22 -39 -37 -58 -30 -19 7 -21 41 -4 46
19 7 -1 28 -26 28 -29 0 -56 -29 -56 -61 0 -68 92 -97 149 -48 18 16 19 15 25
-20 11 -69 7 -98 -16 -113 -35 -23 -14 -35 63 -34 77 1 96 13 55 36 -31 16
-31 14 -52 374 l-17 280 22 17 c37 30 26 39 -53 39 -82 0 -100 -10 -62 -35 26
-18 29 -33 40 -229 l5 -90 -47 46 c-26 25 -81 65 -122 88 -86 48 -107 64 -126
102 -19 37 -18 62 6 83 11 10 20 22 20 27 0 4 -34 8 -75 8 -47 0 -75 -4 -75
-11z"/>
<path d="M2881 974 c-83 -22 -168 -72 -234 -138 l-60 -61 -72 -1 c-83 -3 -164
-32 -195 -72 -45 -56 -14 -142 50 -142 36 0 80 38 80 69 0 28 -19 36 -35 15
-16 -22 -39 -7 -33 21 6 31 50 55 117 62 61 6 64 5 56 -13 -66 -150 -79 -285
-50 -498 10 -72 20 -133 21 -134 4 -6 134 60 134 67 -1 3 -18 18 -40 33 -52
36 -73 104 -72 242 0 82 5 116 27 181 38 117 35 114 97 83 125 -61 215 -189
225 -320 5 -55 3 -65 -16 -82 -38 -34 -27 -42 59 -43 86 0 98 8 59 43 -20 18
-20 26 -17 329 3 272 5 314 20 337 9 14 14 28 11 32 -11 10 -75 5 -132 -10z
m17 -232 c1 -111 -1 -182 -7 -182 -5 0 -12 8 -16 19 -10 31 -110 119 -169 148
-31 15 -56 30 -56 34 0 4 25 30 56 59 56 50 159 112 179 106 6 -2 11 -74 13
-184z"/>
</g>
</svg>
